<?xml version="1.0" encoding="UTF-8"?>
<svg xmlns="http://www.w3.org/2000/svg" xmlns:xlink="http://www.w3.org/1999/xlink" viewBox="426 171 1144 1655">
<path fill-rule="nonzero" fill="rgb(26.66626%, 77.255249%, 90.196228%)" fill-opacity="1" d="M 881.890625 46.257812 C 883.125 47.113281 887.710938 70.804688 889.421875 75.519531 L 896.664062 68.210938 C 902.707031 88.742188 913.683594 100.636719 904.097656 123.285156 L 911.375 119.554688 L 918.808594 161.785156 L 911.4375 159.949219 C 907.039062 185.222656 918.046875 175.355469 921.6875 178.835938 C 928.328125 185.195312 921.84375 207.019531 922.382812 213.222656 C 923.078125 221.128906 927.382812 227.519531 927.726562 232.898438 C 928.960938 252.761719 923.933594 272.691406 929.785156 292.179688 L 940.761719 288.476562 C 933.265625 301.921875 943.355469 298.757812 943.703125 301.226562 C 945.824219 316.410156 937.722656 330.105469 937.976562 337.382812 C 938.355469 347.125 949.585938 364.746094 951.167969 375.722656 C 952.210938 382.808594 947.847656 389.765625 948.511719 392.898438 C 949.492188 397.484375 958 397.707031 958.824219 398.972656 C 960.089844 400.933594 948.703125 411.816406 962.777344 409.664062 L 955.472656 415.105469 C 977.140625 424.027344 959.898438 430.351562 960.753906 439.242188 C 961.386719 445.824219 970.148438 446.296875 970.339844 448.667969 C 970.878906 454.902344 964.421875 462.714844 966.730469 469.738281 C 968.410156 474.796875 977.203125 474.480469 977.804688 478.058594 C 978.753906 484.066406 970.9375 496.371094 973.691406 506.148438 C 974.703125 509.785156 981 509.785156 982.898438 512.539062 C 985.332031 516.082031 988.59375 541.578125 985.144531 546.449219 C 980.9375 552.332031 963.570312 555.242188 982.042969 566.378906 C 984.730469 568.023438 988.273438 557.835938 991.15625 573.9375 C 994.097656 590.039062 987.515625 600.792969 989.160156 612.5625 C 989.792969 617.277344 999.851562 629.296875 1003.269531 632.398438 L 1003.269531 685.984375 C 1024.875 710.753906 1009.753906 682.914062 1026.457031 671.210938 C 1029.558594 669.03125 1035.410156 670.894531 1036.261719 670.230469 L 1032.40625 659.378906 C 1032.152344 659 1021.171875 667.511719 1025.285156 657.484375 C 1031.835938 641.507812 1064.070312 611.421875 1068.75 599.847656 C 1070.269531 596.082031 1064.292969 591.179688 1067.328125 585.832031 C 1074.414062 573.273438 1102.949219 571.789062 1095.039062 549.136719 L 1105.984375 552.777344 C 1096.96875 529.082031 1129.960938 546.257812 1124.550781 521.902344 C 1123.667969 517.914062 1115.410156 522.183594 1117.054688 516.113281 L 1131.730469 516.050781 C 1125.691406 496.5 1131.066406 504.882812 1136.828125 497.351562 C 1144.703125 487.042969 1149.828125 485.808594 1151.882812 483.117188 C 1154.761719 479.292969 1153.402344 471.382812 1158.9375 464.359375 C 1164.570312 457.179688 1176.335938 455.914062 1181.082031 449.808594 C 1187.503906 441.617188 1196.042969 407.261719 1198.007812 405.964844 C 1199.207031 405.140625 1211.703125 413.871094 1219.832031 393.089844 L 1212.523438 387.617188 C 1241.214844 386.066406 1229.921875 346.96875 1250.421875 335.390625 C 1251.6875 322.988281 1268.453125 313.214844 1270.480469 304.007812 C 1273.609375 289.617188 1261.304688 285.722656 1276.804688 281.074219 C 1279.019531 280.410156 1277.4375 289.519531 1280.410156 288.445312 C 1290.785156 283.859375 1281.484375 270.886719 1282.214844 270.128906 C 1283.320312 268.992188 1306.003906 261.242188 1311.632812 257.035156 C 1315.683594 254.027344 1312.265625 240.648438 1320.839844 237.074219 C 1324.507812 235.554688 1319.859375 246.277344 1326.28125 244.378906 C 1318.054688 218.34375 1329.757812 227.960938 1333.808594 223.722656 C 1340.640625 216.605469 1336.9375 202.308594 1348.359375 191.171875 C 1355.191406 184.464844 1363.417969 183.644531 1369.871094 175.988281 C 1376.515625 168.113281 1377.527344 153.96875 1378.414062 153.117188 C 1382.175781 149.574219 1379.804688 155.140625 1387.492188 145.367188 C 1398.660156 131.164062 1402.515625 138.597656 1403.371094 137.964844 C 1406.566406 135.496094 1403.878906 122.621094 1404.667969 120.410156 C 1406.089844 116.328125 1422.097656 110.316406 1425.453125 106.742188 C 1403.847656 96.839844 1438.390625 98.835938 1432.820312 82.859375 C 1437.15625 78.492188 1467.964844 107.945312 1462.210938 82.890625 C 1469.578125 84.09375 1461.925781 94.246094 1473.15625 86.527344 C 1474.230469 91.589844 1471.382812 106.078125 1473.597656 108.355469 C 1475.398438 110.253906 1483.753906 106.171875 1484.320312 110.601562 C 1485.335938 118.445312 1484.890625 140.148438 1473.183594 137.996094 L 1473.21875 141.570312 C 1480.621094 136.414062 1481.503906 155.773438 1480.589844 156.28125 L 1465.847656 156.3125 C 1457.242188 162.828125 1475.84375 163.019531 1473.15625 167.289062 L 1458.539062 178.328125 L 1473.121094 176.429688 C 1468.949219 180.289062 1459.898438 202.496094 1457.875 203.636719 C 1454.171875 205.753906 1447.722656 200.378906 1443.578125 202.179688 C 1438.863281 204.238281 1431.492188 221.667969 1423.617188 226.410156 C 1419.410156 228.972656 1414.695312 225.621094 1414.476562 226.0625 L 1416.5625 237.292969 C 1414.316406 240.269531 1405.746094 241.058594 1401.566406 244.410156 C 1379.769531 261.839844 1395.464844 264.183594 1391.886719 278.449219 L 1377.75 297.746094 C 1373.414062 301.097656 1371.230469 291.957031 1366.769531 292.179688 C 1366.582031 300.84375 1342.378906 320.394531 1341.589844 322.230469 C 1339.21875 327.957031 1351.933594 349.246094 1322.640625 339.882812 C 1334.21875 359.875 1315.242188 367.59375 1306.539062 380.65625 C 1303.125 385.78125 1297.175781 404.257812 1296.132812 405.109375 C 1292.652344 407.957031 1279.839844 405.550781 1275.761719 410.488281 C 1273.007812 413.808594 1274.054688 422.191406 1271.585938 425.796875 C 1269.246094 429.214844 1262.980469 427 1261.210938 428.675781 C 1257.507812 432.21875 1258.648438 436.207031 1246.625 447.214844 L 1235.050781 471.003906 C 1234.289062 475.75 1238.8125 482.515625 1238.210938 483.023438 C 1237.261719 483.785156 1229.734375 482.265625 1226.191406 483.8125 C 1219.929688 486.628906 1197.148438 522.882812 1193.324219 531.800781 C 1190.824219 537.6875 1191.265625 547.367188 1190.257812 549.042969 C 1190.035156 549.421875 1185.351562 545.910156 1181.238281 548.757812 C 1172.507812 554.769531 1174.535156 568.277344 1164.792969 560.113281 C 1166.121094 564.195312 1161.027344 578.777344 1161.53125 580.421875 C 1162.511719 583.367188 1169.691406 580.769531 1168.429688 583.964844 C 1166.277344 589.40625 1156.34375 587.730469 1153.402344 591.875 C 1148.058594 599.308594 1137.425781 625.945312 1130.65625 632.492188 C 1127.875 635.148438 1120.28125 634.199219 1116.644531 638.628906 C 1113.257812 642.773438 1108.261719 671.78125 1105.953125 673.933594 L 1091.367188 670.261719 C 1090.832031 670.894531 1092.382812 676.652344 1090.132812 679.910156 C 1085.011719 687.472656 1057.046875 706.671875 1058.3125 712.429688 C 1060.144531 721.097656 1083.113281 716.984375 1072.925781 707.019531 C 1085.261719 707.75 1102.660156 709.835938 1114.398438 706.167969 C 1121.800781 703.828125 1130.4375 690.570312 1141.445312 689.621094 C 1149.605469 688.894531 1155.078125 695.253906 1159.382812 695.980469 L 1161.625 689.464844 C 1163.558594 688.101562 1167.699219 693.039062 1171.242188 691.617188 C 1184.117188 686.457031 1176.875 685.320312 1198.953125 681.300781 C 1201.867188 680.765625 1201.105469 675.101562 1203.859375 674.214844 C 1209.488281 672.445312 1227.773438 676.558594 1234.542969 677.570312 L 1230.875 670.390625 C 1245.867188 663.871094 1240.171875 671.65625 1242.609375 672.886719 L 1278.640625 662.890625 L 1274.875 651.945312 C 1277.3125 649.320312 1335.898438 636.636719 1344.660156 640.875 C 1345.199219 634.925781 1338.300781 626.765625 1346.554688 622.589844 C 1357.027344 617.308594 1343.457031 631.480469 1353.546875 629.644531 C 1357.40625 628.949219 1361.804688 625.3125 1366.675781 626.164062 L 1359.371094 618.921875 C 1376.957031 627.683594 1384.613281 615.570312 1396.128906 613.386719 C 1418.871094 609.082031 1412.832031 616.136719 1433.421875 601.429688 C 1439.625 596.96875 1476.128906 610.632812 1484.164062 615.25 C 1483.246094 621.136719 1459.679688 623.445312 1469.484375 633.535156 C 1471.164062 635.246094 1491.25 631.921875 1491.503906 640.84375 C 1465.089844 641.160156 1476.382812 655.078125 1473.21875 659.285156 C 1472.175781 660.675781 1458.347656 657.132812 1455.3125 659.792969 C 1453.257812 661.59375 1455.816406 673.015625 1444.9375 676.9375 C 1426.367188 683.613281 1439.941406 671.277344 1429.152344 666.59375 C 1431.652344 684.910156 1423.585938 673.046875 1422.097656 674.183594 C 1417.859375 677.507812 1413.019531 705.535156 1388.753906 699.617188 L 1394.292969 688.671875 C 1382.902344 694.9375 1368.320312 701.863281 1355.921875 705.40625 C 1347.855469 707.683594 1338.523438 705.40625 1332.257812 707.527344 C 1321.4375 711.132812 1338.394531 716.414062 1309.734375 714.992188 C 1305.875 714.800781 1301.382812 718.34375 1299.011719 718.125 C 1296.640625 717.902344 1297.621094 705.535156 1289.585938 710.691406 C 1288.859375 711.164062 1295.089844 720.875 1284.015625 725.304688 C 1275.414062 728.753906 1281.550781 716.480469 1274.9375 718.03125 C 1276.585938 733.402344 1252.574219 745.519531 1239.191406 746.5625 C 1228.660156 747.355469 1214.265625 740.300781 1206.640625 740.363281 C 1204.523438 740.394531 1205.121094 756.496094 1199.875 740.140625 C 1189.6875 740.140625 1185.984375 751.246094 1185.035156 751.023438 C 1166.246094 746.847656 1176.589844 749.949219 1163.777344 750.042969 C 1157.988281 750.105469 1144.039062 744.347656 1139.070312 747.386719 C 1138.660156 747.636719 1143.40625 753.648438 1139.355469 756.496094 C 1131.574219 762 1110.726562 762.695312 1109.652344 776.710938 L 1104.210938 765.765625 C 1094.308594 774.8125 1059.386719 775.347656 1054.609375 785.949219 C 1062.171875 786.292969 1067.675781 794.296875 1072.957031 796.386719 C 1080.457031 799.359375 1104.910156 796.671875 1094.976562 809.734375 C 1120.09375 798.726562 1121.707031 831.152344 1136.351562 836.75 C 1146.507812 840.640625 1151.34375 827.132812 1169.757812 839.789062 C 1177.476562 845.101562 1191.585938 871.515625 1195.886719 853.800781 C 1202.972656 858.132812 1245.328125 880.089844 1245.488281 885.023438 C 1245.519531 886.730469 1237.832031 890.371094 1238.179688 894.164062 C 1247.542969 894.417969 1260.132812 894.925781 1268.613281 898.816406 C 1273.453125 901 1284.492188 918.585938 1285.882812 916.214844 C 1282.402344 901.628906 1302.839844 913.300781 1305.84375 919.757812 C 1307.332031 922.953125 1302.683594 929.59375 1307.742188 932.789062 C 1315.90625 937.945312 1330.457031 930.542969 1322.671875 949.269531 C 1333.207031 946.140625 1325.015625 930.101562 1339.125 934.496094 C 1346.460938 936.777344 1349.308594 971.320312 1381.355469 952.941406 C 1378.601562 976.980469 1423.648438 953.699219 1421.875 985.996094 L 1428.996094 982.359375 C 1427.0625 990.265625 1434.753906 994.886719 1436.492188 998.90625 C 1436.808594 999.632812 1422.476562 1004.1875 1429.152344 1011.683594 C 1432.285156 1015.226562 1438.101562 1007.191406 1440.160156 1006.117188 C 1455.757812 998.050781 1448.828125 1028.355469 1446.328125 1035.472656 L 1441.269531 1038.097656 L 1443.671875 1044.519531 C 1442.976562 1045.40625 1432.0625 1046.671875 1428.234375 1048.664062 C 1423.519531 1051.066406 1426.84375 1061.378906 1410.804688 1052.046875 C 1414.441406 1076.34375 1390.023438 1051.574219 1381.070312 1046.890625 C 1364.96875 1038.539062 1348.582031 1034.679688 1335.453125 1019.023438 C 1336.464844 1036.863281 1291.546875 1006.527344 1289.617188 1002.507812 L 1296.925781 997.039062 C 1285.15625 992.070312 1273.832031 985.046875 1262.917969 978.53125 L 1257.886719 971.097656 C 1244.414062 969.707031 1234.289062 987.515625 1241.820312 960.3125 L 1230.875 963.949219 C 1229.070312 959.710938 1235.269531 950 1234.542969 949.332031 C 1234.128906 948.921875 1226.917969 949.207031 1223.535156 947.53125 C 1218.949219 945.253906 1213.0625 939.558594 1209.835938 938.925781 C 1201.644531 937.34375 1192.28125 947.246094 1184.941406 934.59375 C 1181.902344 945.664062 1174.976562 941.835938 1164.757812 941.902344 L 1179.4375 934.5625 C 1173.773438 915.484375 1130.214844 917.097656 1124.332031 908.84375 L 1128.0625 897.929688 C 1120.914062 898.5 1108.957031 890.96875 1103.894531 890.75 C 1100.605469 890.589844 1105.003906 899.574219 1098.707031 897.867188 L 1094.976562 875.847656 L 1089.4375 883.25 L 1065.648438 875.816406 L 1080.265625 868.574219 L 1058.3125 861.171875 C 1059.292969 866.105469 1050.433594 881.195312 1051.382812 882.714844 C 1051.699219 883.21875 1057.078125 882.523438 1059.421875 887.710938 C 1064.890625 899.953125 1070.238281 943.292969 1074.632812 949.492188 C 1077.101562 952.941406 1083.585938 952.941406 1087.667969 953.003906 C 1088.746094 968.535156 1071.566406 964.296875 1080.328125 978.625 C 1064.765625 970.6875 1069.761719 997.132812 1072.988281 1000.675781 C 1079.316406 1007.636719 1083.015625 989.699219 1085.800781 989.730469 C 1094.847656 989.824219 1097.882812 1019.054688 1099.59375 1021.871094 C 1101.113281 1024.402344 1107.597656 1022.722656 1109.8125 1031.929688 C 1113.703125 1048.0625 1098.769531 1046.890625 1098.707031 1050.214844 C 1098.707031 1050.910156 1105.855469 1055.496094 1105.984375 1061.222656 C 1106.171875 1069.730469 1094.847656 1080.707031 1106.046875 1096.113281 C 1112.3125 1097.757812 1107.789062 1089.28125 1111.519531 1088.617188 C 1115.917969 1087.855469 1124.394531 1090.957031 1124.300781 1094.277344 C 1124.269531 1095.226562 1114.523438 1102.441406 1120.726562 1110.824219 L 1128 1107.121094 L 1128.09375 1136.476562 L 1133.535156 1125.5 C 1147.769531 1131.921875 1137.933594 1145.273438 1139.070312 1147.519531 C 1139.769531 1148.847656 1157.640625 1141.128906 1153.71875 1165.929688 L 1146.414062 1167.699219 C 1164 1176.019531 1152.640625 1175.480469 1153.6875 1185.921875 C 1154.761719 1196.457031 1155.648438 1217.429688 1168.429688 1217.332031 L 1168.394531 1220.910156 C 1145.144531 1228.40625 1170.863281 1238.625 1175.734375 1243.019531 C 1179.121094 1246.054688 1152.328125 1252.574219 1172.066406 1261.335938 L 1179.4375 1253.996094 C 1182.535156 1261.242188 1167.890625 1274.496094 1172.128906 1279.652344 C 1178.898438 1287.9375 1178.457031 1270.195312 1183.074219 1272.375 L 1186.746094 1298.0625 L 1179.46875 1294.328125 C 1174.535156 1307.265625 1185.699219 1309.261719 1186.238281 1310.90625 C 1188.074219 1316.285156 1177.792969 1339.503906 1197.816406 1334.789062 C 1193.988281 1344.785156 1190.003906 1347.726562 1201.515625 1351.300781 L 1194.144531 1353.074219 L 1194.144531 1364.144531 L 1201.453125 1360.410156 C 1195.476562 1383.3125 1219.328125 1377.652344 1208.792969 1397.136719 L 1219.863281 1397.203125 C 1215.152344 1409.160156 1218.882812 1428.773438 1221.257812 1442.28125 C 1221.890625 1445.855469 1226.632812 1449.398438 1227.078125 1454.238281 C 1227.550781 1459.238281 1223.34375 1464.992188 1224.070312 1468.441406 C 1226.128906 1478.246094 1250.105469 1473.4375 1227.171875 1488.90625 C 1231.566406 1490.773438 1240.300781 1484.636719 1241.535156 1485.710938 C 1243.179688 1487.136719 1239.097656 1494.03125 1245.488281 1492.609375 L 1252.859375 1485.300781 C 1253.300781 1493.84375 1244 1504.566406 1245.296875 1512.414062 C 1245.742188 1514.972656 1258.140625 1512.757812 1249.1875 1529.304688 C 1261.050781 1524.9375 1263.742188 1539.046875 1262.761719 1548.949219 C 1262.472656 1551.699219 1257.824219 1554.863281 1257.414062 1557.742188 C 1256.402344 1564.953125 1263.296875 1571.34375 1254.691406 1577.039062 L 1251.054688 1566.0625 C 1246.847656 1567.800781 1246.816406 1577.039062 1243.652344 1577.101562 C 1234.859375 1577.199219 1234.164062 1558.882812 1227.171875 1566.0625 C 1226.035156 1567.261719 1242.417969 1593.867188 1225.339844 1595.324219 C 1215.277344 1596.207031 1224.261719 1577.605469 1223.5 1577.070312 C 1214.710938 1571.21875 1211.480469 1584.25 1210.691406 1584.472656 C 1194.652344 1588.804688 1206.453125 1562.710938 1186.808594 1573.371094 L 1194.144531 1566 C 1191.902344 1554.640625 1171.117188 1569.195312 1179.46875 1551.351562 C 1179.722656 1550.847656 1189.398438 1557.046875 1190.445312 1547.746094 C 1172.128906 1546.257812 1178.203125 1529.808594 1173.109375 1519.117188 C 1169.914062 1512.378906 1162.007812 1511.210938 1161.625 1510.480469 C 1160.742188 1508.773438 1168.335938 1488.625 1168.492188 1483.464844 L 1161.121094 1485.300781 C 1174.3125 1457.589844 1148.816406 1453.605469 1146.347656 1430.226562 L 1139.105469 1441.203125 C 1137.742188 1431.90625 1143.660156 1423.171875 1142.742188 1414 C 1141.824219 1404.761719 1126.859375 1392.046875 1142.710938 1393.46875 L 1142.710938 1389.863281 C 1123.222656 1394.355469 1132.398438 1370.535156 1130.941406 1362.246094 C 1130.5625 1360.128906 1125.722656 1360.695312 1124.804688 1357.535156 C 1115.949219 1327.261719 1108.546875 1297.269531 1101.082031 1267.472656 C 1098.929688 1258.996094 1088.300781 1254.695312 1091.9375 1242.039062 C 1093.363281 1237.074219 1100.511719 1235.015625 1098.644531 1228.308594 L 1087.699219 1231.949219 C 1085.832031 1226.886719 1093.425781 1216.414062 1091.304688 1213.570312 L 1085.894531 1216.226562 C 1083.015625 1215.625 1084.1875 1211.480469 1083.238281 1211.132812 C 1080.265625 1209.964844 1074.445312 1218.789062 1073.71875 1200.789062 C 1073.179688 1187.410156 1072.671875 1165.265625 1066.410156 1152.296875 C 1058.535156 1135.941406 1040.214844 1136.257812 1050.910156 1110.792969 L 1043.632812 1114.523438 C 1041.859375 1111.898438 1048.378906 1095.195312 1045.941406 1090.386719 C 1043.886719 1086.277344 1038.066406 1086.75 1036.359375 1082.289062 C 1032.433594 1072.039062 1037.371094 1046.195312 1036.230469 1044.710938 L 1027.4375 1047.808594 C 1019.8125 1046.640625 1015.226562 996.753906 1017.949219 987.894531 L 1010.578125 989.699219 L 1014.183594 967.648438 C 994.855469 972.617188 1002.351562 984.289062 1001.277344 997.511719 C 1001.023438 1001.023438 996.46875 1004.125 995.835938 1006.273438 C 995.613281 1006.96875 1008.109375 1009.40625 1003.175781 1019.023438 L 995.898438 1011.714844 C 991.753906 1031.171875 976.097656 1054.136719 992.230469 1072.324219 C 972.457031 1079.980469 999.949219 1078.839844 988.433594 1094.246094 L 995.835938 1092.445312 L 988.558594 1118.128906 L 995.835938 1110.824219 C 1003.269531 1123.570312 982.296875 1150.683594 982.203125 1152.960938 C 982.074219 1155.585938 993.589844 1184.371094 994.855469 1190.855469 C 996.625 1199.871094 1000.707031 1225.90625 999.597656 1233.59375 C 997.070312 1251.054688 976.382812 1240.015625 981.21875 1257.667969 L 992.164062 1255.800781 C 981.851562 1262.980469 956.734375 1300.75 981.125 1294.394531 C 984.003906 1299.136719 970.9375 1304.957031 977.675781 1317.296875 C 979.703125 1320.996094 985.839844 1319.476562 984.859375 1321.851562 C 982.582031 1327.355469 970.371094 1336.308594 970.179688 1337.351562 L 969.894531 1361.742188 C 970.75 1366.167969 979.101562 1361.613281 977.457031 1367.75 L 970.6875 1369.425781 C 969.800781 1377.746094 975.273438 1395.808594 974.199219 1406.503906 C 973.851562 1410.140625 953.128906 1427.570312 973.789062 1419.15625 L 977.457031 1485.238281 C 973.4375 1484.574219 969.863281 1471.226562 962.839844 1477.960938 C 958.730469 1481.851562 972.773438 1490.300781 970.148438 1496.277344 L 955.472656 1496.308594 C 953.828125 1502.382812 962.019531 1498.460938 962.90625 1501.75 C 965.785156 1512.441406 955.597656 1510.417969 955.25 1513.203125 C 954.554688 1519.148438 959.996094 1531.042969 959.234375 1542.082031 C 958.445312 1553.820312 950.566406 1563.183594 949.871094 1571.410156 C 946.296875 1612.628906 940.824219 1686.332031 942.5 1725.84375 C 942.628906 1728.753906 948.003906 1731.757812 948.257812 1736.726562 L 940.507812 1740.773438 C 939.910156 1745.394531 944.683594 1751.433594 943.796875 1757.984375 C 942.914062 1764.59375 930.007812 1790.660156 922.445312 1793.632812 L 918.773438 1782.65625 C 918.871094 1792.9375 914.949219 1799.992188 926.148438 1802.839844 L 918.773438 1808.3125 C 922.699219 1809.671875 932.789062 1804.199219 933.390625 1804.640625 C 934.972656 1805.75 942.121094 1827.925781 929.785156 1823.050781 L 929.816406 1826.628906 C 955.660156 1834.316406 912.796875 1865.285156 929.753906 1878.0625 C 910.835938 1874.519531 924.34375 1886.476562 920.671875 1896.472656 C 916.121094 1908.84375 915.074219 1886.035156 907.734375 1892.804688 C 912.988281 1898.5625 907.832031 1907.925781 908.75 1910.425781 C 909.035156 1911.28125 916.8125 1911.308594 917.417969 1924.5 C 918.175781 1941.363281 903.5625 1938.007812 911.375 1955.1875 L 896.726562 1955.15625 C 901.503906 1943.417969 897.675781 1934.117188 896.695312 1922.160156 L 887.523438 1936.808594 L 874.742188 1925.800781 C 875.375 1934.433594 868.730469 1954.523438 862.628906 1939.496094 C 859.527344 1931.839844 864.808594 1921.085938 858.132812 1918.492188 C 854.433594 1917.035156 859.144531 1927.664062 852.691406 1925.800781 L 852.691406 1907.421875 L 859.96875 1911.152344 C 857.21875 1900.398438 863.828125 1888.945312 863.984375 1879.710938 C 864.144531 1870.820312 855.414062 1877.496094 856.363281 1870.789062 C 884.203125 1866.738281 863.957031 1861.078125 859.9375 1848.738281 L 849.023438 1859.71875 C 849.53125 1851.808594 845.894531 1830.105469 854.527344 1826.691406 L 859.96875 1834.03125 C 864.585938 1826.40625 852.03125 1813.027344 852.691406 1812.078125 C 852.914062 1811.757812 857.628906 1813.214844 859.8125 1809.324219 C 865.253906 1799.550781 862.785156 1789.015625 860.03125 1778.957031 L 870.949219 1777.152344 C 856.835938 1761.117188 870.820312 1765.382812 871.292969 1762.03125 C 872.371094 1754.25 869.964844 1715.339844 871.484375 1713.347656 C 872.558594 1711.957031 878.980469 1712.398438 881.226562 1707.050781 C 882.652344 1703.605469 879.550781 1690.792969 880.183594 1685.351562 C 880.660156 1681.335938 885.117188 1679.5 885.6875 1677.980469 C 886.890625 1674.847656 880.53125 1676.875 879.867188 1675.386719 C 878.503906 1672.253906 872.210938 1657.007812 872.179688 1655.996094 C 872.148438 1651.695312 880.816406 1643.785156 878.09375 1639.800781 C 877.273438 1638.628906 867.464844 1637.015625 867.40625 1633.949219 C 867.371094 1631.511719 876.640625 1629.203125 878.699219 1625.847656 C 881.988281 1620.472656 877.875 1615 878.570312 1612.4375 C 879.675781 1608.417969 881.289062 1614.96875 883.441406 1598.011719 C 885.878906 1578.90625 889.863281 1566.882812 882.046875 1547.652344 L 889.390625 1549.519531 C 889.324219 1542.78125 890.117188 1523.261719 893.5625 1518.863281 C 894.007812 1518.292969 901.628906 1522.660156 904.003906 1516.492188 L 893.058594 1503.648438 C 905.140625 1508.300781 913.839844 1498.175781 907.703125 1488.90625 L 900.429688 1492.640625 C 889.832031 1467.046875 919.664062 1451.613281 907.734375 1426.558594 C 929.152344 1436.617188 914.917969 1415.644531 913.113281 1406.375 C 911.976562 1400.300781 920.894531 1394.957031 907.734375 1391.667969 C 910.488281 1384.929688 918.460938 1390.304688 918.714844 1389.800781 C 919.378906 1388.375 922.035156 1363.765625 922.605469 1358.386719 C 923.175781 1352.757812 919.3125 1346.273438 919.726562 1343.617188 C 920.421875 1338.933594 933.167969 1341.179688 929.847656 1329.316406 C 929.40625 1327.734375 923.175781 1327.894531 922.507812 1324.949219 C 921.335938 1320.046875 921.558594 1308.691406 922.414062 1303.503906 C 924.4375 1291.007812 932.980469 1298.695312 933.390625 1298.0625 C 938.609375 1290.089844 926.84375 1290.597656 924.503906 1287.179688 L 925.703125 1279.96875 C 919.976562 1276.203125 910.804688 1287.023438 914.820312 1259.28125 C 915.769531 1252.796875 921.023438 1254.3125 922.066406 1251.117188 C 924.976562 1242.480469 929.28125 1217.050781 918.773438 1215.464844 C 921.53125 1208.664062 929.46875 1214.105469 929.722656 1213.601562 C 934.785156 1203.730469 922.257812 1201.769531 922.289062 1200.726562 C 922.539062 1194.558594 934.6875 1184.308594 929.816406 1173.238281 L 935.257812 1180.542969 C 955.34375 1167.289062 932.378906 1167.351562 930.578125 1161.625 C 929.691406 1158.78125 934.785156 1151.820312 933.707031 1146.09375 C 933.167969 1143.152344 926.84375 1144.132812 926.464844 1143.597656 C 920.992188 1136.257812 931.300781 1137.078125 933.550781 1134.011719 C 939.9375 1125.3125 923.679688 1088.933594 929.722656 1074.128906 L 918.773438 1088.777344 C 919.851562 1081.5 917.195312 1071.597656 918.492188 1065.082031 C 919.3125 1061 927.570312 1064.480469 929.246094 1062.769531 C 930.511719 1061.476562 932.285156 1035.664062 936.046875 1027.28125 C 938.074219 1022.820312 946.328125 1020.066406 948.101562 1013.488281 L 937.058594 1013.488281 L 940.761719 984.164062 L 948.101562 986.027344 L 948.101562 960.28125 C 935.636719 966.320312 936.710938 981.820312 937.09375 993.367188 L 929.785156 989.636719 C 937.25 1003.710938 927.0625 999.441406 926.273438 1002.984375 C 921.90625 1022.535156 907.355469 1056.191406 894.449219 1073.84375 C 883.125 1089.375 886.921875 1090.261719 879.550781 1110.160156 C 871.453125 1132.082031 861.742188 1144.101562 845.324219 1160.394531 L 852.664062 1162.226562 C 841.054688 1172.066406 832.734375 1181.113281 845.324219 1195.222656 C 834.03125 1195.160156 826.976562 1188.925781 819.636719 1200.789062 L 830.582031 1204.363281 L 804.960938 1244.824219 C 807.015625 1249.125 813.878906 1243.683594 812.265625 1250.265625 C 797.367188 1250.675781 803.28125 1263.867188 799.519531 1272.4375 C 795.3125 1281.992188 779.496094 1297.335938 793.917969 1299.867188 C 783.226562 1309.925781 782.152344 1321.820312 768.230469 1329.253906 L 779.207031 1334.695312 L 760.859375 1347.632812 C 783.097656 1358.070312 746.089844 1353.261719 753.492188 1375.152344 L 746.214844 1371.453125 C 747.132812 1388.691406 741.46875 1406.34375 727.835938 1417.382812 C 742.039062 1421.148438 733.8125 1433.203125 724.199219 1437.535156 L 720.53125 1426.558594 C 728.308594 1455.660156 701.863281 1469.582031 693.988281 1493.714844 C 689.90625 1506.210938 698.257812 1530.507812 680.070312 1525.664062 C 686.523438 1537.402344 688.421875 1551.636719 672.761719 1555.085938 C 669.03125 1558.40625 688.515625 1559.863281 680.101562 1566.03125 C 678.738281 1567.042969 672.035156 1565.398438 669.058594 1566.0625 C 685.195312 1583.777344 663.523438 1592.855469 657.070312 1603.515625 C 652.992188 1610.285156 640.210938 1633.378906 638.21875 1639.386719 C 636.792969 1643.628906 640.6875 1648.941406 639.671875 1650.492188 C 639.417969 1650.839844 633.914062 1646.445312 630.6875 1650.238281 C 623.730469 1658.433594 622.621094 1676.273438 617.941406 1685.605469 C 613.828125 1693.863281 604.875 1697.246094 603.925781 1698.890625 C 603.167969 1700.1875 605.097656 1727.203125 592.0625 1718.441406 L 591.90625 1698.226562 L 588.269531 1720.210938 C 582.132812 1719.292969 577.386719 1715.878906 570.933594 1719.042969 C 562.835938 1723.058594 564.734375 1731.503906 559.007812 1731.1875 C 559.734375 1719.644531 543.664062 1728.660156 547.871094 1712.875 C 527.40625 1722.492188 541.070312 1706.546875 539.804688 1693.511719 C 539.140625 1686.679688 533.382812 1681.367188 533.195312 1674.375 L 540.535156 1676.210938 C 542.714844 1673.238281 529.460938 1653.875 544.203125 1650.460938 L 551.542969 1665.167969 C 550.371094 1660.804688 556.667969 1648.121094 555.273438 1646.824219 C 554.671875 1646.285156 536.355469 1648.46875 544.296875 1639.484375 C 544.929688 1638.757812 551.164062 1640.90625 551.191406 1637.777344 L 547.839844 1628.472656 C 549.421875 1626.796875 567.453125 1630.152344 562.550781 1613.765625 L 551.605469 1621.105469 L 547.902344 1610.128906 C 566.597656 1612.972656 559.546875 1607.753906 563.972656 1600.605469 L 570.109375 1596.527344 C 570.488281 1593.296875 567.644531 1590.230469 567.738281 1588.585938 C 568.339844 1574.066406 581.054688 1586.308594 584.597656 1584.378906 C 585.042969 1584.125 582.132812 1578.683594 583.425781 1574.289062 C 587.257812 1561.347656 598.960938 1550.339844 599.277344 1548.824219 C 603.230469 1528.957031 607.5625 1509.660156 615.824219 1488.9375 C 619.300781 1480.175781 629.644531 1459.109375 639.671875 1463.222656 L 628.726562 1455.945312 C 638.914062 1456.578125 637.457031 1445.316406 643.34375 1439.339844 C 649.542969 1433.230469 644.957031 1444.683594 648.878906 1444.9375 C 652.675781 1445.160156 649.984375 1433.769531 650.746094 1430.226562 L 658.019531 1441.203125 C 660.140625 1425.546875 645.019531 1422.886719 650.746094 1404.476562 L 657.863281 1408.085938 C 657.480469 1389.671875 671.464844 1393.753906 672.257812 1392.804688 L 685.382812 1367.402344 C 688.800781 1356.964844 677.160156 1360.347656 698.417969 1351.207031 L 698.132812 1346.019531 C 686.429688 1347.347656 692.816406 1335.261719 696.613281 1327.386719 C 717.679688 1283.605469 757.351562 1233.5 773.738281 1187.628906 C 776.710938 1179.246094 772.566406 1174.3125 774.65625 1166.972656 C 780.160156 1147.804688 787.433594 1155.363281 791.578125 1154.128906 C 801.097656 1151.25 794.960938 1139.703125 798.539062 1133.664062 L 807.425781 1121.957031 C 811.539062 1116.582031 823.714844 1114.300781 819.574219 1107.089844 C 819.132812 1106.300781 810.210938 1116.042969 812.296875 1105.351562 C 815.113281 1102.21875 819.382812 1099.65625 821.125 1095.796875 C 831.722656 1072.484375 835.832031 1053.089844 847.539062 1034.082031 C 850.703125 1028.957031 855.222656 1024.304688 858.199219 1019.023438 C 866.582031 1018.453125 862.722656 1035.882812 865.03125 1040.183594 L 878.316406 1052.082031 C 880.34375 1042.78125 870.089844 1037.148438 870.820312 1028.324219 C 870.949219 1026.929688 895.460938 1011.398438 867.371094 1019.023438 C 865.851562 1017 866.453125 982.359375 869.050781 978.53125 C 872.148438 974.039062 878.855469 979.324219 882.046875 977.078125 C 888.914062 972.171875 889.925781 950.472656 889.324219 941.933594 C 888.410156 940.667969 874.617188 953.195312 871.042969 954.425781 C 867.339844 955.722656 861.582031 952.148438 860.378906 953.066406 C 858.925781 954.175781 859.085938 961.859375 856.523438 964.960938 C 851.429688 971.097656 838.109375 979.070312 834.125 984.035156 C 831.941406 986.722656 833.050781 997.351562 828.78125 996.941406 C 825.359375 996.59375 823.84375 986.535156 823.179688 986.058594 L 805.210938 993.683594 C 804.453125 994.949219 812.078125 1001.59375 793.886719 1016.652344 C 781.105469 1027.214844 764.625 1034.300781 749.882812 1043.476562 C 737.546875 1051.097656 739.855469 1078.113281 720.53125 1059.417969 C 722.394531 1067.167969 701.390625 1105.066406 697.53125 1106.332031 C 692.246094 1108.039062 687.757812 1103.894531 683.582031 1105.414062 C 678.519531 1107.25 641.761719 1138.25 635.210938 1144.039062 C 626.039062 1152.199219 620.441406 1164.03125 608.484375 1169.535156 L 604.875 1158.558594 C 596.683594 1167.667969 583.902344 1174.027344 584.597656 1187.882812 C 580.582031 1187.1875 577.007812 1173.835938 569.953125 1180.574219 C 565.871094 1184.5 579.882812 1192.945312 577.261719 1198.890625 L 555.273438 1198.957031 C 553.378906 1205.375 564.066406 1200.695312 562.582031 1204.394531 C 558.882812 1213.507812 548.601562 1205.789062 547.9375 1206.261719 C 546.765625 1207.050781 547.554688 1217.933594 545.628906 1220.910156 C 531.203125 1243.304688 506.910156 1232.328125 487.832031 1242.796875 C 483.054688 1245.425781 486.503906 1252.761719 485.460938 1253.964844 C 484.511719 1255.039062 458.949219 1252.890625 459.773438 1246.6875 L 474.511719 1246.625 C 474.609375 1239.792969 474.355469 1228.40625 468.3125 1224.292969 C 464.105469 1221.414062 447.121094 1219.707031 460.691406 1210.816406 C 471.257812 1203.890625 488.65625 1214.074219 485.523438 1184.246094 L 489.160156 1191.550781 C 498.871094 1194.429688 494.949219 1187.058594 499.0625 1184.214844 C 504.691406 1180.257812 510.925781 1180.070312 517.125 1173.300781 C 524.304688 1165.453125 526.488281 1143.722656 547.871094 1143.816406 C 548.378906 1137.492188 534.113281 1142.296875 542.304688 1132.746094 C 552.902344 1120.375 567.421875 1130.5 580.929688 1129.140625 L 577.292969 1114.523438 C 600.289062 1117.878906 590.734375 1100.605469 591.96875 1099.847656 C 600.542969 1094.5625 599.847656 1115.378906 606.648438 1107.121094 C 608.988281 1104.277344 605.414062 1089.691406 602.976562 1085.136719 C 624.554688 1091.683594 617.65625 1084.851562 629.425781 1076.722656 C 640.875 1068.78125 651.03125 1074.667969 647.074219 1055.75 L 659.917969 1062.992188 C 665.960938 1060.242188 661.753906 1053.28125 665.234375 1050.277344 C 671.304688 1045.027344 695.316406 1031.488281 700 1026.203125 L 709.550781 1006.242188 C 709.613281 1002.003906 700.503906 1007.382812 702.148438 1000.707031 C 720.148438 1003.078125 708.730469 995.773438 710.121094 993.96875 C 717.460938 984.476562 732.832031 985.679688 734.449219 984.859375 C 739.285156 982.390625 753.425781 957.683594 758.015625 954.175781 C 768.675781 945.980469 792.90625 929.941406 806.066406 921.148438 C 816.21875 914.378906 835.105469 913.207031 845.636719 896.03125 C 848.582031 891.222656 844.914062 887.113281 845.324219 886.921875 C 847.757812 885.75 864.96875 884.136719 870.03125 878.539062 C 872.179688 876.132812 869.871094 870.535156 873.222656 868.066406 C 876.800781 865.441406 891.382812 869.777344 900.523438 859.175781 C 904.160156 855.003906 898.972656 842.097656 915.074219 837.289062 C 900.492188 826.027344 880.910156 834.695312 865.472656 833.679688 C 860.191406 833.332031 848.074219 819.128906 848.960938 835.453125 C 842.570312 837.128906 847.316406 828.050781 843.457031 827.988281 C 836.75 827.890625 831.5625 835.359375 825.109375 837.320312 C 813.4375 840.863281 785.882812 828.460938 771.898438 828.082031 C 772.757812 818.496094 789.710938 828.90625 790.21875 828.113281 C 795.152344 820.679688 784.964844 812.742188 777.691406 813.183594 L 773.324219 821.027344 C 768.769531 821.691406 755.734375 814.730469 753.523438 817.105469 L 753.332031 827.765625 C 748.808594 831.941406 730.554688 819.828125 735.144531 839.183594 C 726.539062 839.375 722.300781 826.089844 718.09375 824.824219 C 712.175781 823.050781 681.90625 829.472656 680.101562 828.113281 L 683.738281 817.136719 C 666.6875 837.574219 661.945312 817.738281 643.34375 824.445312 L 645.144531 817.074219 C 635.179688 822.261719 624.554688 816.03125 616.136719 817.074219 C 601.460938 818.941406 604.65625 831.214844 576.375 824.191406 C 573.433594 823.464844 574.191406 818.75 571.1875 817.484375 C 568.308594 816.25 558.183594 826.28125 558.882812 806.066406 L 544.265625 813.46875 C 537.621094 797.621094 541.070312 784.269531 536.894531 769.433594 L 555.242188 769.371094 C 555.304688 764.121094 548.789062 764.054688 546.417969 762.191406 C 539.742188 756.9375 560.875 747.324219 558.976562 769.402344 C 568.6875 763.359375 577.796875 762.253906 582.796875 751.054688 L 580.960938 769.371094 C 604.019531 775.382812 592.476562 756.402344 600.667969 750.867188 C 608.609375 745.519531 624.394531 743.9375 628.695312 754.660156 L 606.679688 758.332031 C 631.511719 760.890625 661.816406 755.105469 685.859375 758.078125 C 693.039062 758.996094 689.210938 765.289062 696.550781 766.046875 C 706.832031 767.125 705.566406 756.652344 719.105469 756.085938 C 727.519531 755.703125 738.402344 756.71875 740.679688 765.765625 C 742.515625 751.496094 783.386719 759.976562 793.035156 764.625 C 799.644531 767.789062 794.960938 774.75 803.0625 773.101562 C 804.042969 755.292969 814.066406 766.175781 831.910156 765.382812 C 836.464844 765.164062 856.523438 763.835938 852.628906 754.722656 L 841.621094 756.464844 C 849.023438 744.695312 834.914062 745.488281 830.171875 734.699219 C 827.734375 729.101562 829.980469 723.25 828.90625 721.636719 C 823.589844 713.789062 821.34375 726.128906 815.933594 723.785156 C 811.09375 721.699219 801.765625 707.050781 795.6875 703.351562 L 804.894531 703.320312 L 789.140625 678.742188 C 784.585938 675.480469 775.191406 676.050781 772.597656 673.363281 C 770.507812 671.210938 757.792969 642.898438 751.5 637.425781 C 743.75 630.65625 730.050781 630.972656 723.753906 620.851562 C 720.402344 615.441406 724.925781 610.570312 723.660156 608.609375 C 722.207031 606.363281 711.449219 603.925781 708.222656 600.699219 C 704.742188 597.222656 706.863281 591.683594 703.542969 589.21875 C 699.492188 586.242188 680.007812 582.417969 676.9375 577.734375 C 676.273438 576.753906 679.941406 562.390625 673.046875 555.085938 C 666.625 548.316406 657.355469 559.863281 665.453125 541.832031 C 647.515625 543.097656 645.082031 528.257812 635.847656 521.773438 C 630.46875 518.011719 613.957031 515.132812 611.078125 511.839844 C 610.441406 511.144531 612.941406 505.894531 611.105469 502.667969 C 603.421875 489.097656 590.070312 472.238281 580.804688 459.046875 C 568.371094 441.394531 548.125 423.742188 534.429688 405.140625 C 532.625 402.644531 531.421875 383.628906 526.078125 378.410156 C 524.84375 377.210938 515.480469 379.644531 509.21875 373.191406 C 504.125 367.941406 492.324219 350.289062 485.332031 341.714844 C 482.707031 338.457031 485.175781 332.132812 481.949219 330.519531 C 478.246094 328.683594 472.679688 333.652344 471.128906 332.480469 C 470.179688 331.785156 469.515625 323.9375 467.175781 320.394531 C 465.625 318.054688 460.660156 318.277344 459.835938 315.367188 C 453.605469 292.777344 475.527344 309.101562 478.121094 306.855469 C 484.605469 299.550781 473.976562 289.425781 474.511719 288.539062 L 480.398438 287.054688 L 483.625 281.136719 C 487.515625 283.195312 488.308594 290.976562 489.570312 291.703125 C 490.996094 292.527344 509.46875 285.28125 516.714844 303.15625 L 522.15625 295.847656 C 521.207031 304.546875 532.625 306.632812 535 310.621094 C 538.035156 315.777344 535.851562 322.863281 537.085938 325.078125 L 544.140625 323.90625 C 551.164062 327.734375 554.707031 335.515625 566.25 332.542969 L 558.941406 350.890625 C 577.480469 338.679688 571.125 346.96875 581.339844 356.015625 C 588.617188 362.46875 619.839844 381.796875 620.566406 386.222656 C 621.136719 389.894531 616.644531 395.207031 618.132812 397.929688 L 633.949219 413.585938 C 639.671875 417.859375 647.328125 415.136719 651 419.3125 C 659.378906 428.960938 655.332031 434.71875 643.375 428.011719 C 654.195312 434.878906 646.851562 448.574219 647.484375 449.585938 C 647.773438 450.125 655.015625 452.179688 658.117188 455.3125 C 669.441406 466.636719 720.433594 527.34375 725.054688 529.367188 C 761.367188 545.375 771.332031 554.421875 791.261719 588.492188 C 796.417969 597.285156 818.054688 600.070312 819.164062 601.175781 L 819.953125 611.078125 C 820.425781 611.960938 828.746094 604.71875 834.695312 620.660156 C 837.984375 629.488281 833.871094 636.414062 834.410156 637.015625 C 835.578125 638.4375 845.894531 638.3125 848.265625 641.699219 C 850.859375 645.367188 847.570312 655.554688 854.527344 659.253906 L 858.132812 648.277344 C 866.484375 653.6875 861.011719 658.875 860.03125 666.59375 C 874.363281 654.855469 869.554688 661.054688 876.261719 672.539062 C 878.664062 676.652344 885.339844 672.191406 878.378906 688.609375 C 905.238281 680.480469 891.792969 698.320312 892.996094 699.617188 C 894.039062 700.695312 914.949219 704.332031 920.484375 710.53125 C 924.027344 714.550781 918.238281 728.121094 918.808594 728.816406 C 919.566406 729.765625 936.933594 733.054688 940.730469 736.375 C 939.371094 727.929688 947.46875 720.277344 947.277344 713 C 947.089844 704.804688 939.050781 704.363281 937.40625 700.441406 C 936.015625 697.054688 927.382812 660.898438 926.777344 656.566406 C 925.449219 646.757812 933.675781 639.453125 932.695312 628.949219 C 931.777344 619.332031 923.140625 606.550781 920.800781 597.1875 C 919.789062 593.109375 923.363281 587.289062 922.414062 585.832031 C 922.160156 585.453125 916.464844 589.566406 913.269531 586.179688 C 907.480469 579.980469 907.355469 568.210938 907.769531 560.113281 L 915.042969 563.847656 C 917.195312 551.761719 911.4375 540.46875 911.121094 528.890625 C 910.773438 514.910156 916.339844 485.742188 914.441406 473.722656 C 914.222656 472.269531 900.648438 471.066406 915.105469 453.699219 C 901.15625 457.75 904.761719 442.882812 900.367188 431.683594 L 894.890625 446.296875 C 874.648438 428.835938 895.84375 395.367188 893.34375 378.949219 C 892.773438 375.152344 883.347656 375.25 882.046875 370.851562 C 880.6875 366.167969 892.457031 351.238281 885.6875 343.519531 C 874.835938 331.214844 881.480469 355.382812 881.542969 356.519531 C 881.605469 357.914062 872.339844 360.09375 874.617188 365.535156 L 863.734375 352.628906 L 874.679688 350.859375 C 876.039062 349.214844 868.066406 315.082031 867.71875 308.40625 C 867.625 306.476562 876.832031 309.039062 874.867188 297.683594 C 872.90625 286.421875 864.621094 291.417969 859.75 285.976562 C 850.257812 275.347656 852.691406 244.410156 849.023438 229.703125 L 856.300781 233.433594 C 855.160156 219.894531 850.320312 192.878906 852.472656 180.703125 C 852.851562 178.613281 866.992188 177.09375 859.96875 170.992188 L 849.023438 174.660156 C 843.617188 167.859375 863.292969 158.273438 856.300781 148.972656 L 849.023438 156.28125 C 852 142.425781 839.21875 128.917969 838.175781 117.558594 C 837.667969 112.183594 841.304688 105.980469 840.832031 100.289062 C 839.976562 90.132812 830.898438 76.53125 841.589844 70.269531 C 843.171875 69.351562 855.097656 74.539062 848.707031 64.730469 C 848.421875 64.289062 834 64.351562 841.683594 57.171875 L 848.328125 59.863281 L 850.796875 54.074219 L 861.835938 56.570312 C 863.003906 56.253906 872.84375 39.964844 881.890625 46.257812 "/>
</svg>
